<mxfile host="app.diagrams.net" modified="2023-12-10T17:00:07.405Z" agent="Mozilla/5.0 (Windows NT 10.0; Win64; x64) AppleWebKit/537.36 (KHTML, like Gecko) Chrome/120.0.0.0 Safari/537.36 Edg/120.0.0.0" etag="ekB_-AJA6Ejs0LWtCzE5" version="22.1.7" type="github">
  <diagram id="prtHgNgQTEPvFCAcTncT" name="Page-1">
    <mxGraphModel dx="905" dy="579" grid="1" gridSize="10" guides="1" tooltips="1" connect="1" arrows="1" fold="1" page="1" pageScale="1" pageWidth="827" pageHeight="1169" math="0" shadow="0">
      <root>
        <mxCell id="0" />
        <mxCell id="1" parent="0" />
        <mxCell id="AtwaMxpfhJAdxMwbgCBK-39" style="edgeStyle=orthogonalEdgeStyle;rounded=0;orthogonalLoop=1;jettySize=auto;html=1;exitX=0.5;exitY=1;exitDx=0;exitDy=0;entryX=0.5;entryY=0;entryDx=0;entryDy=0;fontSize=12;startSize=8;endSize=8;" edge="1" parent="1" source="AtwaMxpfhJAdxMwbgCBK-1" target="AtwaMxpfhJAdxMwbgCBK-2">
          <mxGeometry relative="1" as="geometry" />
        </mxCell>
        <mxCell id="AtwaMxpfhJAdxMwbgCBK-40" style="edgeStyle=orthogonalEdgeStyle;rounded=0;orthogonalLoop=1;jettySize=auto;html=1;fontSize=12;startSize=8;endSize=8;" edge="1" parent="1" source="AtwaMxpfhJAdxMwbgCBK-1" target="AtwaMxpfhJAdxMwbgCBK-18">
          <mxGeometry relative="1" as="geometry" />
        </mxCell>
        <mxCell id="AtwaMxpfhJAdxMwbgCBK-41" style="edgeStyle=orthogonalEdgeStyle;rounded=0;orthogonalLoop=1;jettySize=auto;html=1;fontSize=12;startSize=8;endSize=8;" edge="1" parent="1" source="AtwaMxpfhJAdxMwbgCBK-1" target="AtwaMxpfhJAdxMwbgCBK-19">
          <mxGeometry relative="1" as="geometry" />
        </mxCell>
        <mxCell id="AtwaMxpfhJAdxMwbgCBK-45" style="edgeStyle=orthogonalEdgeStyle;rounded=0;orthogonalLoop=1;jettySize=auto;html=1;fontSize=12;startSize=8;endSize=8;exitX=0.5;exitY=1;exitDx=0;exitDy=0;" edge="1" parent="1" source="AtwaMxpfhJAdxMwbgCBK-1" target="AtwaMxpfhJAdxMwbgCBK-25">
          <mxGeometry relative="1" as="geometry" />
        </mxCell>
        <mxCell id="AtwaMxpfhJAdxMwbgCBK-1" value="小程序端功能" style="rounded=0;whiteSpace=wrap;html=1;fontSize=16;" vertex="1" parent="1">
          <mxGeometry x="300" y="150" width="250" height="30" as="geometry" />
        </mxCell>
        <mxCell id="AtwaMxpfhJAdxMwbgCBK-46" style="edgeStyle=orthogonalEdgeStyle;rounded=0;orthogonalLoop=1;jettySize=auto;html=1;entryX=0.5;entryY=0;entryDx=0;entryDy=0;fontSize=12;startSize=8;endSize=8;" edge="1" parent="1" source="AtwaMxpfhJAdxMwbgCBK-2" target="AtwaMxpfhJAdxMwbgCBK-10">
          <mxGeometry relative="1" as="geometry" />
        </mxCell>
        <mxCell id="AtwaMxpfhJAdxMwbgCBK-47" style="edgeStyle=orthogonalEdgeStyle;rounded=0;orthogonalLoop=1;jettySize=auto;html=1;entryX=0.5;entryY=0;entryDx=0;entryDy=0;fontSize=12;startSize=8;endSize=8;" edge="1" parent="1" source="AtwaMxpfhJAdxMwbgCBK-2" target="AtwaMxpfhJAdxMwbgCBK-16">
          <mxGeometry relative="1" as="geometry" />
        </mxCell>
        <mxCell id="AtwaMxpfhJAdxMwbgCBK-2" value="首页功能导航" style="rounded=0;whiteSpace=wrap;html=1;fontSize=16;" vertex="1" parent="1">
          <mxGeometry x="160" y="240" width="30" height="180" as="geometry" />
        </mxCell>
        <mxCell id="AtwaMxpfhJAdxMwbgCBK-10" value="杭州城市简介" style="whiteSpace=wrap;html=1;fontSize=16;rounded=0;" vertex="1" parent="1">
          <mxGeometry x="140" y="510" width="30" height="150" as="geometry" />
        </mxCell>
        <mxCell id="AtwaMxpfhJAdxMwbgCBK-16" value="著名景点介绍" style="whiteSpace=wrap;html=1;fontSize=16;rounded=0;" vertex="1" parent="1">
          <mxGeometry x="180" y="510" width="30" height="150" as="geometry" />
        </mxCell>
        <mxCell id="AtwaMxpfhJAdxMwbgCBK-17" value="获取当前位置信息" style="whiteSpace=wrap;html=1;fontSize=16;rounded=0;" vertex="1" parent="1">
          <mxGeometry x="260" y="510" width="30" height="150" as="geometry" />
        </mxCell>
        <mxCell id="AtwaMxpfhJAdxMwbgCBK-49" style="edgeStyle=orthogonalEdgeStyle;rounded=0;orthogonalLoop=1;jettySize=auto;html=1;entryX=0.5;entryY=0;entryDx=0;entryDy=0;fontSize=12;startSize=8;endSize=8;exitX=0.5;exitY=1;exitDx=0;exitDy=0;" edge="1" parent="1" source="AtwaMxpfhJAdxMwbgCBK-18" target="AtwaMxpfhJAdxMwbgCBK-17">
          <mxGeometry relative="1" as="geometry" />
        </mxCell>
        <mxCell id="AtwaMxpfhJAdxMwbgCBK-50" style="edgeStyle=orthogonalEdgeStyle;rounded=0;orthogonalLoop=1;jettySize=auto;html=1;entryX=0.5;entryY=0;entryDx=0;entryDy=0;fontSize=12;startSize=8;endSize=8;" edge="1" parent="1" source="AtwaMxpfhJAdxMwbgCBK-18" target="AtwaMxpfhJAdxMwbgCBK-28">
          <mxGeometry relative="1" as="geometry" />
        </mxCell>
        <mxCell id="AtwaMxpfhJAdxMwbgCBK-51" style="edgeStyle=orthogonalEdgeStyle;rounded=0;orthogonalLoop=1;jettySize=auto;html=1;fontSize=12;startSize=8;endSize=8;exitX=0.5;exitY=1;exitDx=0;exitDy=0;" edge="1" parent="1" source="AtwaMxpfhJAdxMwbgCBK-18" target="AtwaMxpfhJAdxMwbgCBK-20">
          <mxGeometry relative="1" as="geometry" />
        </mxCell>
        <mxCell id="AtwaMxpfhJAdxMwbgCBK-52" style="edgeStyle=orthogonalEdgeStyle;rounded=0;orthogonalLoop=1;jettySize=auto;html=1;entryX=0.5;entryY=0;entryDx=0;entryDy=0;fontSize=12;startSize=8;endSize=8;exitX=0.5;exitY=1;exitDx=0;exitDy=0;" edge="1" parent="1" source="AtwaMxpfhJAdxMwbgCBK-18" target="AtwaMxpfhJAdxMwbgCBK-23">
          <mxGeometry relative="1" as="geometry" />
        </mxCell>
        <mxCell id="AtwaMxpfhJAdxMwbgCBK-18" value="路线规划" style="rounded=0;whiteSpace=wrap;html=1;fontSize=16;" vertex="1" parent="1">
          <mxGeometry x="320" y="240" width="30" height="180" as="geometry" />
        </mxCell>
        <mxCell id="AtwaMxpfhJAdxMwbgCBK-53" style="edgeStyle=orthogonalEdgeStyle;rounded=0;orthogonalLoop=1;jettySize=auto;html=1;entryX=0.5;entryY=0;entryDx=0;entryDy=0;fontSize=12;startSize=8;endSize=8;" edge="1" parent="1" source="AtwaMxpfhJAdxMwbgCBK-19" target="AtwaMxpfhJAdxMwbgCBK-21">
          <mxGeometry relative="1" as="geometry" />
        </mxCell>
        <mxCell id="AtwaMxpfhJAdxMwbgCBK-54" style="edgeStyle=orthogonalEdgeStyle;rounded=0;orthogonalLoop=1;jettySize=auto;html=1;entryX=0.5;entryY=0;entryDx=0;entryDy=0;fontSize=12;startSize=8;endSize=8;exitX=0.5;exitY=1;exitDx=0;exitDy=0;" edge="1" parent="1" source="AtwaMxpfhJAdxMwbgCBK-19" target="AtwaMxpfhJAdxMwbgCBK-22">
          <mxGeometry relative="1" as="geometry" />
        </mxCell>
        <mxCell id="AtwaMxpfhJAdxMwbgCBK-19" value="社交模块" style="rounded=0;whiteSpace=wrap;html=1;fontSize=16;" vertex="1" parent="1">
          <mxGeometry x="479" y="240" width="30" height="180" as="geometry" />
        </mxCell>
        <mxCell id="AtwaMxpfhJAdxMwbgCBK-20" value="生成个性化路线" style="whiteSpace=wrap;html=1;fontSize=16;rounded=0;" vertex="1" parent="1">
          <mxGeometry x="340" y="510" width="30" height="150" as="geometry" />
        </mxCell>
        <mxCell id="AtwaMxpfhJAdxMwbgCBK-21" value="朋友圈功能" style="whiteSpace=wrap;html=1;fontSize=16;rounded=0;" vertex="1" parent="1">
          <mxGeometry x="459" y="510" width="30" height="150" as="geometry" />
        </mxCell>
        <mxCell id="AtwaMxpfhJAdxMwbgCBK-22" value="个人路线偏好设置" style="whiteSpace=wrap;html=1;fontSize=16;rounded=0;" vertex="1" parent="1">
          <mxGeometry x="500" y="510" width="30" height="150" as="geometry" />
        </mxCell>
        <mxCell id="AtwaMxpfhJAdxMwbgCBK-23" value="同伴匹配" style="whiteSpace=wrap;html=1;fontSize=16;rounded=0;" vertex="1" parent="1">
          <mxGeometry x="384" y="510" width="30" height="150" as="geometry" />
        </mxCell>
        <mxCell id="AtwaMxpfhJAdxMwbgCBK-55" style="edgeStyle=orthogonalEdgeStyle;rounded=0;orthogonalLoop=1;jettySize=auto;html=1;entryX=0.5;entryY=0;entryDx=0;entryDy=0;fontSize=12;startSize=8;endSize=8;" edge="1" parent="1" source="AtwaMxpfhJAdxMwbgCBK-25" target="AtwaMxpfhJAdxMwbgCBK-26">
          <mxGeometry relative="1" as="geometry" />
        </mxCell>
        <mxCell id="AtwaMxpfhJAdxMwbgCBK-56" style="edgeStyle=orthogonalEdgeStyle;rounded=0;orthogonalLoop=1;jettySize=auto;html=1;entryX=0.5;entryY=0;entryDx=0;entryDy=0;fontSize=12;startSize=8;endSize=8;" edge="1" parent="1" source="AtwaMxpfhJAdxMwbgCBK-25" target="AtwaMxpfhJAdxMwbgCBK-27">
          <mxGeometry relative="1" as="geometry" />
        </mxCell>
        <mxCell id="AtwaMxpfhJAdxMwbgCBK-25" value="浏览路线模块" style="rounded=0;whiteSpace=wrap;html=1;fontSize=16;" vertex="1" parent="1">
          <mxGeometry x="630" y="240" width="30" height="180" as="geometry" />
        </mxCell>
        <mxCell id="AtwaMxpfhJAdxMwbgCBK-26" value="路线评价" style="whiteSpace=wrap;html=1;fontSize=16;rounded=0;" vertex="1" parent="1">
          <mxGeometry x="610" y="510" width="30" height="150" as="geometry" />
        </mxCell>
        <mxCell id="AtwaMxpfhJAdxMwbgCBK-27" value="路线具体信息" style="whiteSpace=wrap;html=1;fontSize=16;rounded=0;" vertex="1" parent="1">
          <mxGeometry x="650" y="510" width="30" height="150" as="geometry" />
        </mxCell>
        <mxCell id="AtwaMxpfhJAdxMwbgCBK-28" value="路线导航" style="whiteSpace=wrap;html=1;fontSize=16;rounded=0;" vertex="1" parent="1">
          <mxGeometry x="300" y="510" width="30" height="150" as="geometry" />
        </mxCell>
      </root>
    </mxGraphModel>
  </diagram>
</mxfile>
